Coordinates
version=1
nRows=21
nColumns=12
inDegrees=yes

Units are S.I. units (second, meters, Newtons, ...)
Angles are in degrees

endheader
time	SC_y	SC_z	SC_x	AC_y	AC_z	AC_x	GH_y	GH_z	GH_yy	EL_x	PS_y
       0.0              -40.97          7.129          12.91          51.44          3.261          7.725         -163.4          28.41          53.43          109.0          145.5
   0.03272              -40.97          7.133          12.92          51.44           3.26          7.727         -163.3          28.41          53.44          109.0          145.4
   0.06544              -40.97          7.137          12.93          51.44          3.259          7.728         -163.3           28.4          53.45          109.0          145.4
   0.09815              -40.97          7.141          12.94          51.44          3.258           7.73         -163.3           28.4          53.47          109.0          145.4
    0.1309              -40.97          7.146          12.95          51.44          3.256          7.731         -163.2          28.39          53.48          109.0          145.4
    0.1636              -40.97          7.151          12.96          51.44          3.255          7.733         -163.2          28.39           53.5          109.0          145.4
    0.1963              -40.97          7.156          12.97          51.43          3.254          7.735         -163.1          28.38          53.52          108.9          145.3
     0.229              -40.97          7.162          12.98          51.43          3.252          7.738         -163.0          28.37          53.53          108.9          145.3
    0.2617              -40.97          7.168          12.99          51.43           3.25           7.74         -163.0          28.37          53.55          108.9          145.3
    0.2945              -40.97          7.174          13.01          51.43          3.248          7.742         -162.9          28.36          53.57          108.9          145.2
    0.3272              -40.97          7.181          13.02          51.42          3.246          7.745         -162.8          28.35           53.6          108.8          145.2
    0.3599              -40.98          7.188          13.04          51.42          3.244          7.748         -162.8          28.35          53.62          108.8          145.2
    0.3926              -40.98          7.196          13.05          51.42          3.242          7.751         -162.7          28.34          53.65          108.8          145.1
    0.4253              -40.98          7.205          13.07          51.42           3.24          7.754         -162.6          28.33          53.68          108.7          145.1
    0.4581              -40.98          7.214          13.09          51.41          3.237          7.758         -162.5          28.32          53.71          108.7          145.0
    0.4908              -40.98          7.225          13.12          51.41          3.234          7.762         -162.4          28.31          53.74          108.7          145.0
    0.5235              -40.98          7.236          13.14           51.4          3.231          7.766         -162.3          28.29          53.78          108.6          144.9
    0.5562              -40.99          7.248          13.16           51.4          3.227          7.771         -162.1          28.28          53.81          108.6          144.9
    0.5889              -40.99          7.261          13.19           51.4          3.224          7.776         -162.0          28.27          53.86          108.5          144.8
    0.6216              -40.99          7.275          13.22          51.39          3.219          7.781         -161.8          28.25           53.9          108.5          144.7
    0.6544              -40.99          7.291          13.26          51.38          3.215          7.787         -161.7          28.23          53.96          108.4          144.7
